<?xml version="1.0" encoding="utf-8"?>
<!-- Generator: Adobe Illustrator 17.0.0, SVG Export Plug-In . SVG Version: 6.00 Build 0)  -->
<svg version="1.2" baseProfile="tiny" id="Layer_1" xmlns="http://www.w3.org/2000/svg" xmlns:xlink="http://www.w3.org/1999/xlink"
	 x="0px" y="0px" width="288px" height="288px" viewBox="0 0 288 288" preserveAspectRatio="none" xml:space="preserve">
<path d="M252.131,66.73c-0.028-0.149-0.057-0.298-0.086-0.447c22.776-15.302,24.067-32.957,24.067-32.957
	C256.73,45.685,239.457,47.8,239.457,47.8s0.001,0.013,0.001,0.017c-10.454-11.14-25.301-18.109-41.783-18.109
	c-31.648,0-57.303,25.656-57.303,57.303c0,4.531,0.542,8.932,1.536,13.16c-0.995,0.371-1.532,0.57-1.536,0.57
	C75.697,101.865,23.022,40.91,23.303,41.472C1.955,95.966,40.438,115.629,40.157,115.91c-7.022,3.933-25.281-5.337-25-5.056
	c0.281,44.382,43.258,56.461,42.978,56.18c-5.618,3.09-22.753,1.966-22.753,1.685c14.326,41.292,52.247,39.607,52.247,39.607
	c-34.705,31.066-84.671,23.548-85.034,23.493C28.385,249.109,59.409,259.2,92.792,259.2c89.573,0,162.185-72.613,162.185-162.185
	c0-2.101-0.055-4.188-0.134-6.269c0.08-1.236,0.134-2.478,0.134-3.734c0,0,18.146-13.798,29.472-28.966
	C284.449,58.319,263.015,65.861,252.131,66.73z"/>
</svg>
