<svg width="50" height="28" viewBox="0 0 50 28" fill="none" xmlns="http://www.w3.org/2000/svg">
<path fill-rule="evenodd" clip-rule="evenodd" d="M48 1.60223L2 1.60223C2.26869 4.82648 3.36038 9.35022 5.72025 13.6022C9.21566 7.30418 15.4934 1.60224 26 1.60224C36.5066 1.60224 42.3092 7.30417 45.2798 13.6022C47.2853 9.35022 48 4.82649 48 1.60223ZM45.2798 13.6022C47.2853 17.8543 48 22.378 48 25.6022L2 25.6022C2.26869 22.378 3.36038 17.8543 5.72025 13.6022C9.21566 19.9003 15.4934 25.6022 26 25.6022C36.5066 25.6022 42.3092 19.9003 45.2798 13.6022Z" fill="#FE4646"/>
<path d="M2 1.60223L0.50518 1.72679L0.369801 0.102226L2 0.102226V1.60223ZM48 1.60223L48 0.102234L49.5 0.102234V1.60223H48ZM26 1.60224V3.10224V1.60224ZM48 25.6022H49.5V27.1022H48L48 25.6022ZM2 25.6022V27.1022H0.369801L0.50518 25.4777L2 25.6022ZM2 0.102226L48 0.102234L48 3.10223L2 3.10223V0.102226ZM4.4087 14.3301C1.93455 9.8722 0.789509 5.13874 0.50518 1.72679L3.49482 1.47766C3.74787 4.51422 4.78622 8.82824 7.03179 12.8743L4.4087 14.3301ZM26 3.10224C16.1618 3.10224 10.3286 8.38992 7.03179 14.3301L4.4087 12.8743C8.10271 6.21843 14.825 0.10224 26 0.102238V3.10224ZM43.9231 14.2421C41.1482 8.35895 35.8134 3.10224 26 3.10224V0.102238C37.1999 0.102235 43.4702 6.2494 46.6364 12.9623L43.9231 14.2421ZM49.5 1.60223C49.5 5.0151 48.7493 9.76243 46.6364 14.2421L43.9231 12.9623C45.8212 8.93801 46.5 4.63788 46.5 1.60223H49.5ZM46.5 25.6022C46.5 22.5666 45.8212 18.2665 43.9231 14.2421L46.6364 12.9623C48.7493 17.442 49.5 22.1894 49.5 25.6022H46.5ZM2 24.1022L48 24.1022L48 27.1022L2 27.1022V24.1022ZM7.03179 14.3301C4.78622 18.3762 3.74787 22.6902 3.49482 25.7268L0.50518 25.4777C0.789509 22.0657 1.93455 17.3323 4.4087 12.8743L7.03179 14.3301ZM26 27.1022C14.825 27.1022 8.10271 20.986 4.4087 14.3301L7.03179 12.8743C10.3286 18.8146 16.1618 24.1022 26 24.1022V27.1022ZM46.6364 14.2421C43.4702 20.9551 37.1999 27.1022 26 27.1022V24.1022C35.8134 24.1022 41.1482 18.8455 43.9231 12.9623L46.6364 14.2421Z" fill="black"/>
</svg>
