<svg width="51" height="50" viewBox="0 0 51 50" fill="none" xmlns="http://www.w3.org/2000/svg">
<path fill-rule="evenodd" clip-rule="evenodd" d="M26 24.5175V47.5C20.428 47.0357 10.9753 44.1135 5.75058 36.4359C8.73025 30.1633 14.529 24.5 25 24.5C25.3377 24.5 25.671 24.5059 26 24.5175ZM26 24.5175L26 1.5C18 1.5 2 5.9 2 23.5C2 28.8417 3.47386 33.0903 5.75058 36.4359C3.72192 40.7065 3 45.2595 3 48.5L49 48.5C48.3461 40.6535 42.8181 25.111 26 24.5175Z" fill="#FE4646"/>
<path d="M26 47.5L25.8754 48.9948L27.5 49.1302V47.5H26ZM26 1.5L27.5 1.5V0H26V1.5ZM3 48.5H1.5L1.5 50H3L3 48.5ZM49 48.5V50H50.6302L50.4948 48.3754L49 48.5ZM27.5 47.5V24.5175H24.5V47.5H27.5ZM4.51049 37.2798C10.0894 45.4778 20.0648 48.5106 25.8754 48.9948L26.1246 46.0052C20.7913 45.5607 11.8612 42.7491 6.99067 35.592L4.51049 37.2798ZM7.10548 37.0795C9.88814 31.2217 15.2191 26 25 26V23C13.8389 23 7.57237 29.1049 4.39568 35.7923L7.10548 37.0795ZM25 26C25.3202 26 25.6359 26.0056 25.9471 26.0166L26.0529 23.0184C25.7061 23.0062 25.3551 23 25 23V26ZM27.5 24.5175L27.5 1.5L24.5 1.5L24.5 24.5175H27.5ZM26 0C21.7848 0 15.4772 1.14782 10.1737 4.64809C4.78952 8.20167 0.5 14.1539 0.5 23.5H3.5C3.5 15.2461 7.21048 10.1983 11.8263 7.15191C16.5228 4.05218 22.2152 3 26 3V0ZM0.5 23.5C0.5 29.1351 2.06018 33.6791 4.51049 37.2798L6.99067 35.592C4.88754 32.5015 3.5 28.5483 3.5 23.5H0.5ZM4.5 48.5C4.5 45.4488 5.18571 41.1209 7.10548 37.0795L4.39568 35.7923C2.25813 40.2921 1.5 45.0703 1.5 48.5H4.5ZM49 47L3 47L3 50L49 50V47ZM25.9471 26.0166C33.826 26.2946 39.0084 30.0435 42.3453 34.6668C45.7209 39.3435 47.1961 44.9152 47.5052 48.6246L50.4948 48.3754C50.1501 44.2383 48.5343 38.1155 44.7779 32.911C40.9828 27.653 34.9922 23.3339 26.0529 23.0184L25.9471 26.0166Z" fill="black"/>
</svg>
